<?xml version="1.0" standalone="no"?>
<!DOCTYPE svg PUBLIC "-//W3C//DTD SVG 20010904//EN"
 "http://www.w3.org/TR/2001/REC-SVG-20010904/DTD/svg10.dtd">
<svg version="1.0" xmlns="http://www.w3.org/2000/svg"
 width="88.000000pt" height="88.000000pt" viewBox="0 0 88.000000 88.000000"
 preserveAspectRatio="xMidYMid meet">
<metadata>
Created by potrace 1.14, written by Peter Selinger 2001-2017
</metadata>
<g transform="translate(0.000000,88.000000) scale(0.100000,-0.100000)"
fill="#000000" stroke="none">
<path d="M127 752 c-15 -17 -17 -54 -17 -333 1 -255 3 -311 13 -299 7 8 41 42
75 75 l63 60 232 2 c271 1 242 -1 261 19 14 13 16 49 16 238 0 203 -2 224 -18
239 -16 15 -53 17 -314 17 -273 0 -296 -1 -311 -18z"/>
</g>
</svg>
